<svg width="153" height="46" viewBox="0 0 153 46" fill="none" xmlns="http://www.w3.org/2000/svg">
<path d="M16.1 0.699999C16.6 0.699999 17.5 0.799999 18.8 0.999999V5.05H17.6C17.3 5.05 17.03 5.15 16.79 5.35C16.55 5.53 16.37 5.73 16.25 5.95L13.4 11.35L19.25 22H13.55L8.9 13.45H6.2V22H0.8V0.999999H6.2V9.25H8.9L11.9 3.55C12.34 2.71 12.88 2.03 13.52 1.51C14.18 0.969999 15.04 0.699999 16.1 0.699999ZM21.0441 0.999999H33.6441C35.7441 0.999999 37.2641 1.48 38.2041 2.44C39.1641 3.38 39.6441 4.9 39.6441 7V10C39.6441 12.1 39.1641 13.63 38.2041 14.59C37.2641 15.53 35.7441 16 33.6441 16H26.4441V22H21.0441V0.999999ZM34.2441 7C34.2441 5.8 33.6441 5.2 32.4441 5.2H26.4441V11.8H32.4441C33.6441 11.8 34.2441 11.2 34.2441 10V7ZM55.843 6.7C55.843 5.5 55.243 4.9 54.043 4.9H48.943C47.743 4.9 47.143 5.5 47.143 6.7V16.3C47.143 17.5 47.743 18.1 48.943 18.1H54.043C55.243 18.1 55.843 17.5 55.843 16.3V6.7ZM61.243 16.3C61.243 18.4 60.763 19.93 59.803 20.89C58.863 21.83 57.343 22.3 55.243 22.3H47.743C45.643 22.3 44.113 21.83 43.153 20.89C42.213 19.93 41.743 18.4 41.743 16.3V6.7C41.743 4.6 42.213 3.08 43.153 2.14C44.113 1.18 45.643 0.699999 47.743 0.699999H55.243C57.343 0.699999 58.863 1.18 59.803 2.14C60.763 3.08 61.243 4.6 61.243 6.7V16.3ZM80.457 21.7C75.997 22.1 72.297 22.3 69.357 22.3C67.397 22.3 65.957 21.84 65.037 20.92C64.117 20 63.657 18.56 63.657 16.6V7C63.657 4.9 64.127 3.38 65.067 2.44C66.027 1.48 67.557 0.999999 69.657 0.999999H80.457V5.2H70.857C69.657 5.2 69.057 5.8 69.057 7V16.6C69.057 17.06 69.187 17.43 69.447 17.71C69.727 17.97 70.077 18.1 70.497 18.1C70.917 18.1 71.377 18.1 71.877 18.1C72.377 18.08 72.897 18.06 73.437 18.04C73.977 18.02 74.517 18 75.057 17.98C75.617 17.96 76.327 17.92 77.187 17.86C78.067 17.8 79.157 17.73 80.457 17.65V21.7ZM99.0605 21.7C94.6005 22.1 90.9005 22.3 87.9605 22.3C86.0005 22.3 84.5605 21.84 83.6405 20.92C82.7205 20 82.2605 18.56 82.2605 16.6V7C82.2605 4.9 82.7305 3.38 83.6705 2.44C84.6305 1.48 86.1605 0.999999 88.2605 0.999999H99.0605V5.2H89.4605C88.2605 5.2 87.6605 5.8 87.6605 7V16.6C87.6605 17.06 87.7905 17.43 88.0505 17.71C88.3305 17.97 88.6805 18.1 89.1005 18.1C89.5205 18.1 89.9805 18.1 90.4805 18.1C90.9805 18.08 91.5005 18.06 92.0405 18.04C92.5805 18.02 93.1205 18 93.6605 17.98C94.2205 17.96 94.9305 17.92 95.7905 17.86C96.6705 17.8 97.7605 17.73 99.0605 17.65V21.7ZM106.864 8.2H113.764C115.864 8.2 117.384 8.68 118.324 9.64C119.284 10.58 119.764 12.1 119.764 14.2V16C119.764 18.1 119.284 19.63 118.324 20.59C117.384 21.53 115.864 22 113.764 22H101.464V0.999999H106.864V8.2ZM127.564 22H122.164V0.999999H127.564V22ZM114.364 14.2C114.364 13 113.764 12.4 112.564 12.4H106.864V17.8H112.564C113.764 17.8 114.364 17.2 114.364 16V14.2ZM130.271 13.45V9.55H152.471V13.45H130.271ZM19.1 45H13.7V32.1L6.5 45H0.8V24H6.2V36.9L13.4 24H19.1V45ZM41.9082 45H36.5082V28.2H30.2082V24H48.2082V28.2H41.9082V45ZM62.3117 29.7C62.3117 28.5 61.7117 27.9 60.5117 27.9H55.4117C54.2117 27.9 53.6117 28.5 53.6117 29.7V39.3C53.6117 40.5 54.2117 41.1 55.4117 41.1H60.5117C61.7117 41.1 62.3117 40.5 62.3117 39.3V29.7ZM67.7117 39.3C67.7117 41.4 67.2317 42.93 66.2717 43.89C65.3317 44.83 63.8117 45.3 61.7117 45.3H54.2117C52.1117 45.3 50.5817 44.83 49.6217 43.89C48.6817 42.93 48.2117 41.4 48.2117 39.3V29.7C48.2117 27.6 48.6817 26.08 49.6217 25.14C50.5817 24.18 52.1117 23.7 54.2117 23.7H61.7117C63.8117 23.7 65.3317 24.18 66.2717 25.14C67.2317 26.08 67.7117 27.6 67.7117 29.7V39.3ZM81.3758 38.1C78.9758 38.3 76.7058 38.4 74.5658 38.4C72.4458 38.4 70.9258 37.94 70.0058 37.02C69.0858 36.1 68.6258 34.66 68.6258 32.7V24H74.0258V32.7C74.0258 33.16 74.1558 33.53 74.4158 33.81C74.6958 34.07 75.0658 34.2 75.5258 34.2C77.1658 34.2 79.1158 34.1 81.3758 33.9V24H86.7758V45H81.3758V38.1ZM105.678 23.7C106.178 23.7 107.078 23.8 108.378 24V28.05H107.178C106.878 28.05 106.608 28.15 106.368 28.35C106.128 28.53 105.948 28.73 105.828 28.95L102.978 34.35L108.828 45H103.128L98.4781 36.45H95.7781V45H90.3781V24H95.7781V32.25H98.4781L101.478 26.55C101.918 25.71 102.458 25.03 103.098 24.51C103.758 23.97 104.618 23.7 105.678 23.7ZM114.372 45H108.522L116.472 24H122.472L130.422 45H124.572L123.222 41.25H115.722L114.372 45ZM117.072 37.35H121.872L119.472 30.3L117.072 37.35ZM131.021 40.5H136.421V45H131.021V40.5Z" fill="white"/>
</svg>
