<svg width="301" height="23" viewBox="0 0 301 23" fill="none" xmlns="http://www.w3.org/2000/svg">
<path d="M16.67 -0.0100012C17.1867 -0.0100012 18.1167 0.0933321 19.46 0.299999V4.485H18.22C17.91 4.485 17.631 4.58833 17.383 4.795C17.135 4.981 16.949 5.18767 16.825 5.415L13.88 10.995L19.925 22H14.035L9.23 13.165H6.44V22H0.86V0.299999H6.44V8.825H9.23L12.33 2.935C12.7847 2.067 13.3427 1.36433 14.004 0.826999C14.686 0.268999 15.5747 -0.0100012 16.67 -0.0100012ZM21.7789 0.299999H34.7989C36.9689 0.299999 38.5396 0.795999 39.5109 1.788C40.5029 2.75933 40.9989 4.33 40.9989 6.5V9.6C40.9989 11.77 40.5029 13.351 39.5109 14.343C38.5396 15.3143 36.9689 15.8 34.7989 15.8H27.3589V22H21.7789V0.299999ZM35.4189 6.5C35.4189 5.26 34.7989 4.64 33.5589 4.64H27.3589V11.46H33.5589C34.7989 11.46 35.4189 10.84 35.4189 9.6V6.5ZM57.7377 6.19C57.7377 4.95 57.1177 4.33 55.8777 4.33H50.6077C49.3677 4.33 48.7477 4.95 48.7477 6.19V16.11C48.7477 17.35 49.3677 17.97 50.6077 17.97H55.8777C57.1177 17.97 57.7377 17.35 57.7377 16.11V6.19ZM63.3177 16.11C63.3177 18.28 62.8217 19.861 61.8297 20.853C60.8584 21.8243 59.2877 22.31 57.1177 22.31H49.3677C47.1977 22.31 45.6167 21.8243 44.6247 20.853C43.6534 19.861 43.1677 18.28 43.1677 16.11V6.19C43.1677 4.02 43.6534 2.44933 44.6247 1.478C45.6167 0.485999 47.1977 -0.0100012 49.3677 -0.0100012H57.1177C59.2877 -0.0100012 60.8584 0.485999 61.8297 1.478C62.8217 2.44933 63.3177 4.02 63.3177 6.19V16.11ZM83.1723 21.69C78.5636 22.1033 74.7403 22.31 71.7023 22.31C69.6769 22.31 68.1889 21.8347 67.2383 20.884C66.2876 19.9333 65.8123 18.4453 65.8123 16.42V6.5C65.8123 4.33 66.2979 2.75933 67.2693 1.788C68.2613 0.795999 69.8423 0.299999 72.0123 0.299999H83.1723V4.64H73.2523C72.0123 4.64 71.3923 5.26 71.3923 6.5V16.42C71.3923 16.8953 71.5266 17.2777 71.7953 17.567C72.0846 17.8357 72.4463 17.97 72.8803 17.97C73.3143 17.97 73.7896 17.97 74.3063 17.97C74.8229 17.9493 75.3603 17.9287 75.9183 17.908C76.4763 17.8873 77.0343 17.8667 77.5923 17.846C78.1709 17.8253 78.9046 17.784 79.7933 17.722C80.7026 17.66 81.8289 17.5877 83.1723 17.505V21.69ZM102.396 21.69C97.7872 22.1033 93.9639 22.31 90.9259 22.31C88.9006 22.31 87.4126 21.8347 86.4619 20.884C85.5112 19.9333 85.0359 18.4453 85.0359 16.42V6.5C85.0359 4.33 85.5216 2.75933 86.4929 1.788C87.4849 0.795999 89.0659 0.299999 91.2359 0.299999H102.396V4.64H92.4759C91.2359 4.64 90.6159 5.26 90.6159 6.5V16.42C90.6159 16.8953 90.7502 17.2777 91.0189 17.567C91.3082 17.8357 91.6699 17.97 92.1039 17.97C92.5379 17.97 93.0132 17.97 93.5299 17.97C94.0466 17.9493 94.5839 17.9287 95.1419 17.908C95.6999 17.8873 96.2579 17.8667 96.8159 17.846C97.3946 17.8253 98.1282 17.784 99.0169 17.722C99.9262 17.66 101.053 17.5877 102.396 17.505V21.69ZM110.46 7.74H117.59C119.76 7.74 121.33 8.236 122.302 9.228C123.294 10.1993 123.79 11.77 123.79 13.94V15.8C123.79 17.97 123.294 19.551 122.302 20.543C121.33 21.5143 119.76 22 117.59 22H104.88V0.299999H110.46V7.74ZM131.85 22H126.27V0.299999H131.85V22ZM118.21 13.94C118.21 12.7 117.59 12.08 116.35 12.08H110.46V17.66H116.35C117.59 17.66 118.21 17.04 118.21 15.8V13.94ZM134.647 13.165V9.135H157.587V13.165H134.647ZM179.281 22H173.701V8.67L166.261 22H160.371V0.299999H165.951V13.63L173.391 0.299999H179.281V22ZM202.849 22H197.269V4.64H190.759V0.299999H209.359V4.64H202.849V22ZM223.933 6.19C223.933 4.95 223.313 4.33 222.073 4.33H216.803C215.563 4.33 214.943 4.95 214.943 6.19V16.11C214.943 17.35 215.563 17.97 216.803 17.97H222.073C223.313 17.97 223.933 17.35 223.933 16.11V6.19ZM229.513 16.11C229.513 18.28 229.017 19.861 228.025 20.853C227.054 21.8243 225.483 22.31 223.313 22.31H215.563C213.393 22.31 211.812 21.8243 210.82 20.853C209.849 19.861 209.363 18.28 209.363 16.11V6.19C209.363 4.02 209.849 2.44933 210.82 1.478C211.812 0.485999 213.393 -0.0100012 215.563 -0.0100012H223.313C225.483 -0.0100012 227.054 0.485999 228.025 1.478C229.017 2.44933 229.513 4.02 229.513 6.19V16.11ZM243.632 14.87C241.152 15.0767 238.807 15.18 236.595 15.18C234.405 15.18 232.834 14.7047 231.883 13.754C230.933 12.8033 230.457 11.3153 230.457 9.29V0.299999H236.037V9.29C236.037 9.76533 236.172 10.1477 236.44 10.437C236.73 10.7057 237.112 10.84 237.587 10.84C239.282 10.84 241.297 10.7367 243.632 10.53V0.299999H249.212V22H243.632V14.87ZM268.745 -0.0100012C269.261 -0.0100012 270.191 0.0933321 271.535 0.299999V4.485H270.295C269.985 4.485 269.706 4.58833 269.458 4.795C269.21 4.981 269.024 5.18767 268.9 5.415L265.955 10.995L272 22H266.11L261.305 13.165H258.515V22H252.935V0.299999H258.515V8.825H261.305L264.405 2.935C264.859 2.067 265.417 1.36433 266.079 0.826999C266.761 0.268999 267.649 -0.0100012 268.745 -0.0100012ZM277.729 22H271.684L279.899 0.299999H286.099L294.314 22H288.269L286.874 18.125H279.124L277.729 22ZM280.519 14.095H285.479L282.999 6.81L280.519 14.095ZM294.933 17.35H300.513V22H294.933V17.35Z" fill="white"/>
</svg>
